<mxfile host="app.diagrams.net" modified="2024-02-05T05:00:14.104Z" agent="Mozilla/5.0 (X11; Linux x86_64) AppleWebKit/537.36 (KHTML, like Gecko) Chrome/119.0.0.0 Safari/537.36" version="23.0.2" etag="atf8Wa9GVrAOZKi9x7Dz" type="github">
  <diagram name="Page-1" id="BM1XCjA__fypg-xjwuaD">
    <mxGraphModel>
      <root>
        <mxCell id="0" />
        <mxCell id="1" parent="0" />
      </root>
    </mxGraphModel>
  </diagram>
</mxfile>
